<svg id="SvgjsSvg1088" width="288" height="288" xmlns="http://www.w3.org/2000/svg" version="1.1" xmlns:xlink="http://www.w3.org/1999/xlink" xmlns:svgjs="http://svgjs.com/svgjs"><defs id="SvgjsDefs1089"></defs><g id="SvgjsG1090"><svg xmlns="http://www.w3.org/2000/svg" width="288" height="288" viewBox="0 0 16 16"><path d="M 8 1 C 4.1399291 1 1 4.14 1 8 C 1 11.8601 4.1399291 15 8 15 C 11.860071 15 15 11.8601 15 8 C 15 4.14 11.860071 1 8 1 z M 8 2 C 11.319631 2 14 4.6804 14 8 C 14 11.3197 11.319631 14 8 14 C 4.6803692 14 2 11.3197 2 8 C 2 4.6804 4.6803692 2 8 2 z M 5.5253906 4.8183594 L 4.8183594 5.5253906 L 7.2929688 8 L 4.8183594 10.476562 L 5.5253906 11.183594 L 8 8.7070312 L 10.476562 11.183594 L 11.183594 10.476562 L 8.7070312 8 L 11.183594 5.5253906 L 10.476562 4.8183594 L 8 7.2929688 L 5.5253906 4.8183594 z " color="#000" enable-background="accumulate" font-family="sans-serif" font-weight="400" overflow="visible" style="line-height:normal;text-indent:0;text-align:start;text-decoration-line:none;text-decoration-style:solid;text-decoration-color:#000;text-transform:none;block-progression:tb;white-space:normal;isolation:auto;mix-blend-mode:normal;solid-color:#000;solid-opacity:1" fill="#de1616" class="color000 svgShape"></path></svg></g></svg>